<?xml version="1.0" encoding="iso-8859-1"?>
<!-- Uploaded to: SVG Repo, www.svgrepo.com, Generator: SVG Repo Mixer Tools -->
<svg version="1.1" id="Layer_1" xmlns="http://www.w3.org/2000/svg" xmlns:xlink="http://www.w3.org/1999/xlink" 
	 viewBox="0 0 512 512" xml:space="preserve">
<g>
	<path style="fill:#FCD051;" d="M469.33,223.252v-52.583c0-28.923-23.662-52.587-52.585-52.587H95.255
		c-28.923,0-52.583,23.665-52.583,52.587v52.583h10.665v64c0-11.736,9.601-21.333,21.333-21.333H437.33
		c11.732,0,21.333,9.596,21.333,21.333v-64H469.33z"/>
	<path style="fill:#ED8C18;" d="M437.33,265.92H255.998H74.67c-11.732,0-21.333,9.596-21.333,21.333v21.333h405.326v-21.333
		C458.663,275.516,449.062,265.92,437.33,265.92z"/>
	<g>
		<rect x="53.337" y="308.587" style="fill:#FCD051;" width="405.329" height="85.333"/>
		<path style="fill:#FCD051;" d="M458.663,287.252v21.333v42.67v42.663h33.498c5.042,0,9.172-4.123,9.172-9.168V244.583
			c0-11.73-9.601-21.331-21.337-21.331H469.33h-10.667V287.252z"/>
		<path style="fill:#FCD051;" d="M53.337,308.585v-21.333v-64H42.672h-10.67c-11.734,0-21.335,9.601-21.335,21.331V384.75
			c0,5.044,4.127,9.168,9.172,9.168h33.498V308.585z"/>
	</g>
</g>
<g>
	<path style="fill:#000003;" d="M479.998,212.585v-41.915c0-34.877-28.375-63.254-63.252-63.254H95.255
		c-34.877,0-63.25,28.377-63.25,63.254v41.915h-0.002C14.357,212.585,0,226.94,0,244.583V384.75
		c0,10.938,8.901,19.835,19.839,19.835h33.498h405.326h33.498c10.938,0,19.839-8.897,19.839-19.835V244.583
		C512,226.94,497.643,212.585,479.998,212.585z M64.004,287.252c0-5.88,4.783-10.665,10.665-10.665H437.33
		c5.88,0,10.665,4.785,10.665,10.665v10.665H64.004V287.252z M95.255,128.75h321.491c23.114,0,41.918,18.806,41.918,41.92v41.915
		l0,0c-5.892,0-10.667,4.776-10.667,10.667v33.836c-3.338-1.183-6.927-1.836-10.665-1.836H266.666v-43.319
		c0-5.892-4.776-10.667-10.667-10.667c-5.892,0-10.667,4.776-10.667,10.667v43.319H74.67c-3.74,0-7.327,0.652-10.665,1.836v-33.836
		c0-5.892-4.776-10.667-10.665-10.667v-41.915C53.339,147.555,72.143,128.75,95.255,128.75z M21.335,244.583
		c0-5.88,4.785-10.663,10.667-10.663H42.67v53.333v21.333v74.665H21.335V244.583z M64.004,319.252h383.991v21.335h-43.321
		c-5.892,0-10.667,4.776-10.667,10.667c0,5.891,4.776,10.667,10.667,10.667h43.321v21.328H64.004V319.252z M490.665,383.25H469.33
		v-74.665v-21.333V233.92h10.665c5.882,0,10.67,4.783,10.67,10.663V383.25z"/>
	<path style="fill:#000003;" d="M374.032,340.591h-0.256c-5.892,0-10.667,4.776-10.667,10.667c0,5.891,4.776,10.667,10.667,10.667
		h0.256c5.892,0,10.667-4.777,10.667-10.667C384.7,345.367,379.924,340.591,374.032,340.591z"/>
	<path style="fill:#000003;" d="M255.995,191.958c5.892,0,10.667-4.778,10.667-10.667v-0.256c0-5.892-4.776-10.667-10.667-10.667
		s-10.667,4.776-10.667,10.667v0.256C245.328,187.181,250.103,191.958,255.995,191.958z"/>
</g>
</svg>