<?xml version="1.0" encoding="utf-8"?>
<!-- Uploaded to: SVG Repo, www.svgrepo.com, Generator: SVG Repo Mixer Tools -->
<svg width="800px" height="800px" viewBox="0 -39.07 284.8 284.8" xmlns="http://www.w3.org/2000/svg"><defs><style>.a{fill:#ffffff;}.b{fill:#211715;}.c{fill:#88c5e9;}.d{fill:#fec578;}.e{fill:#74c66d;}.f{fill:#cfcfcf;}</style></defs><path class="a" d="M11.975,204.239C11.944,170.908,11.9,9.6,11.9,2.4H262.3V4.516c0,7.549.073,149.468.1,199.723"/><path class="b" d="M14.375,204.239q-.015-16.074-.019-32.148-.012-24.294-.019-48.586-.009-26.46-.017-52.919l-.012-44.161q0-11.627-.006-23.253V2.4L11.9,4.8H262.3l-2.4-2.4q0,9.578.007,19.154.009,19.233.019,38.465.012,24.8.025,49.6l.027,50.268q.012,20.232.023,40.463l0,3.89c0,3.088,4.8,3.093,4.8,0q-.012-19.4-.023-38.8-.014-24.75-.026-49.5-.014-25.119-.026-50.239-.011-20.23-.02-40.462Q264.7,15.1,264.7,4.955V2.4A2.435,2.435,0,0,0,262.3,0H11.9A2.435,2.435,0,0,0,9.5,2.4q0,9.9,0,19.81,0,21.133.011,42.267.007,26.277.017,52.554.007,24.877.019,49.753.007,17.43.019,34.86,0,1.3,0,2.595c0,3.088,4.8,3.093,4.8,0Z"/><path class="c" d="M107.647,109.518v80.567h58.322c0-5.817.1-71.41.115-80.567Z"/><path class="b" d="M107.647,192.485h99.447c3.089,0,3.094-4.8,0-4.8H107.647c-3.088,0-3.094,4.8,0,4.8Z"/><path class="b" d="M163.63,109.52v80.56c0,3.089,4.8,3.094,4.8,0V109.52c0-3.088-4.8-3.093-4.8,0Z"/><path class="b" d="M121.98,109.52v80.56c0,3.089,4.8,3.094,4.8,0V109.52c0-3.088-4.8-3.093-4.8,0Z"/><path class="d" d="M2.441,109.518C2.553,140.8,2.4,181.647,2.4,204.761l105.069-.518V109.518Z"/><path class="b" d="M26.282,109.518V203.36c0,3.089,4.8,3.094,4.8,0V109.518c0-3.089-4.8-3.094-4.8,0Z"/><path class="b" d="M52.544,109.518q0,16.764,0,33.529,0,23.38,0,46.761,0,6.775,0,13.552c0,3.089,4.8,3.094,4.8,0q0-16.284,0-32.568,0-23.514.005-47.03,0-7.122,0-14.244c0-3.089-4.8-3.094-4.8,0Z"/><path class="b" d="M78.807,109.518V203.36c0,3.089,4.8,3.094,4.8,0V109.518c0-3.089-4.8-3.094-4.8,0Z"/><path class="b" d="M.02,109.518c.12,25.6.044,51.2,0,76.8Q0,195.283,0,204.243c0,3.088,4.8,3.094,4.8,0,0-24.332.1-48.664.078-73q-.01-10.865-.058-21.729c-.014-3.088-4.815-3.095-4.8,0Z"/><path class="b" d="M207.094,201.843H10.7c-2.65,0-5.309-.061-7.959,0-.113,0-.225,0-.337,0-3.089,0-3.094,4.8,0,4.8H198.8c2.65,0,5.309.061,7.96,0,.112,0,.224,0,.336,0,3.089,0,3.094-4.8,0-4.8Z"/><path class="e" d="M205.262,179.418c-1.563-4.113-2.207-10.375,1.205-15.05,2.683-3.676,7.5-6.847,16.025-6.847H265c10.283,0,14.435,4.257,16.527,8.94,1.071,2.4,1.467,8.748-.618,12.957"/><path class="b" d="M207.576,178.78a15.742,15.742,0,0,1-.556-10.3,11.232,11.232,0,0,1,5.279-6.2,20.148,20.148,0,0,1,10.193-2.356c3.113-.015,6.226,0,9.339,0h23.313c3.506,0,7.018-.059,10.524.007a18.031,18.031,0,0,1,9.453,2.379,7.61,7.61,0,0,1,1.451,1.135c.268.252.525.517.771.792.08.09.587.718.38.442a14.131,14.131,0,0,1,1.068,1.668c.166.3.321.607.47.916.065.135.135.274.19.412-.092-.229-.084-.206-.018.015a15.6,15.6,0,0,1-.6,10.52,2.466,2.466,0,0,0,.861,3.283,2.421,2.421,0,0,0,3.284-.861,21.186,21.186,0,0,0,1.5-12.434,14.9,14.9,0,0,0-3.9-7.535c-5.442-5.885-13.756-5.539-21.111-5.539H223.271a27.5,27.5,0,0,0-12.333,2.441,16.815,16.815,0,0,0-8.142,8.561,19.576,19.576,0,0,0,.152,13.933,2.464,2.464,0,0,0,2.952,1.676,2.418,2.418,0,0,0,1.676-2.952Z"/><path class="a" d="M202.41,204.243V179.421H282.4v24.822"/><path class="b" d="M204.81,204.243V179.421l-2.4,2.4H282.4l-2.4-2.4v24.822l2.4-2.4H202.41c-3.089,0-3.094,4.8,0,4.8H282.4a2.435,2.435,0,0,0,2.4-2.4V179.421a2.435,2.435,0,0,0-2.4-2.4H202.41a2.434,2.434,0,0,0-2.4,2.4v24.822C200.01,207.331,204.81,207.337,204.81,204.243Z"/><path class="c" d="M238.292,43.508c-2.527,0-54.521.051-58.742.051V83.625h58.625C238.175,79.12,238.292,44.784,238.292,43.508Z"/><path class="b" d="M240.575,83.625c0-11.686.066-23.373.1-35.059.006-1.686.015-3.372.015-5.058a2.435,2.435,0,0,0-2.4-2.4q-9.921,0-19.841.018l-30.241.027q-4.331,0-8.66.006a2.435,2.435,0,0,0-2.4,2.4V83.625c0,3.089,4.8,3.094,4.8,0V43.559l-2.4,2.4q10.525,0,21.051-.017l29.9-.027q3.9,0,7.789-.007l-2.4-2.4c0,11.128-.071,22.256-.1,33.384q-.009,3.366-.015,6.733c0,3.089,4.8,3.094,4.8,0Z"/><path class="b" d="M206.521,43.559V90.806c0,3.089,4.8,3.094,4.8,0V83.625c0-3.089-4.8-3.094-4.8,0v7.181c0,3.089,4.8,3.094,4.8,0V43.559c0-3.088-4.8-3.094-4.8,0Z"/><path class="b" d="M27.721,20.515H246.58c3.088,0,3.093-4.8,0-4.8H27.721c-3.088,0-3.093,4.8,0,4.8Z"/><path class="f" d="M2.42,83.625H272.8v25.893H2.42Z"/><path class="b" d="M2.42,86.025H272.8l-2.4-2.4v25.893l2.4-2.4H2.42l2.4,2.4V83.625c0-3.089-4.8-3.094-4.8,0v25.893a2.435,2.435,0,0,0,2.4,2.4H272.8a2.435,2.435,0,0,0,2.4-2.4V83.625a2.435,2.435,0,0,0-2.4-2.4H2.42C-.669,81.225-.674,86.025,2.42,86.025Z"/><path class="b" d="M109.869,204.243V121.789c0-3.774.111-7.568,0-11.342,0-.091,0-.182,0-.273,0-3.088-4.8-3.093-4.8,0v94.069c0,3.088,4.8,3.094,4.8,0Z"/></svg>