<?xml version="1.0" encoding="iso-8859-1"?>
<!-- Uploaded to: SVG Repo, www.svgrepo.com, Generator: SVG Repo Mixer Tools -->
<svg version="1.1" id="Layer_1" xmlns="http://www.w3.org/2000/svg" xmlns:xlink="http://www.w3.org/1999/xlink" 
	 viewBox="0 0 512 512" xml:space="preserve">
<path style="fill:#424F5E;" d="M340.977,72.15c0-23.28-18.941-42.221-42.221-42.221h-85.511c-23.281,0-42.221,18.941-42.221,42.221
	v21.378h16.033V72.15c0-14.44,11.748-26.188,26.188-26.188h85.511c14.44,0,26.188,11.748,26.188,26.188v21.378h16.033V72.15z"/>
<g>
	<path style="fill:#FFC44F;" d="M212.71,97.804c0-4.427-3.589-8.017-8.017-8.017h-51.307c-4.427,0-8.017,3.589-8.017,8.017v21.378
		h67.34V97.804z"/>
	<path style="fill:#FFC44F;" d="M366.63,97.804c0-4.427-3.589-8.017-8.017-8.017h-51.307c-4.427,0-8.017,3.589-8.017,8.017v21.378
		h67.34V97.804z"/>
</g>
<g>
	<rect x="145.37" y="106.173" style="fill:#F7B14D;" width="67.34" height="13.005"/>
	<rect x="299.29" y="106.173" style="fill:#F7B14D;" width="67.34" height="13.005"/>
</g>
<path style="fill:#68727E;" d="M0,212.175v244.777c0,13.873,11.246,25.119,25.119,25.119h461.762
	c13.873,0,25.119-11.246,25.119-25.119V212.175H0z"/>
<path style="fill:#424F5E;" d="M0,212.175v13.361c0,37.781,30.628,68.409,68.409,68.409h375.182
	c37.781,0,68.409-30.628,68.409-68.409v-13.361H0z"/>
<path style="fill:#68727E;" d="M503.983,115.441H8.017c-4.427,0-8.017,3.589-8.017,8.017v84.977
	c0,37.781,30.628,68.409,68.409,68.409h375.182c37.781,0,68.409-30.628,68.409-68.409v-84.977
	C512,119.03,508.411,115.441,503.983,115.441z"/>
<path style="fill:#F7B14D;" d="M315.324,337.77H196.676v58.424c0,32.555,25.851,59.721,58.403,60.217
	c33.13,0.505,60.244-26.299,60.244-59.317V337.77z"/>
<path style="fill:#BF722A;" d="M217.119,410.322l25.653,25.653c3.534,3.533,8.23,5.478,13.228,5.478
	c4.997,0,9.694-1.945,13.228-5.478l25.652-25.652c3.534-3.533,5.48-8.23,5.48-13.228V337.77h-88.718v59.324
	C211.641,402.091,213.587,406.789,217.119,410.322z"/>
<path style="fill:#FFC44F;" d="M256,200.952c-18.566,0-33.67,15.105-33.67,33.67v162.472c0,2.126,0.844,4.165,2.348,5.668
	l25.653,25.653c1.565,1.565,3.617,2.348,5.668,2.348c2.051,0,4.103-0.782,5.668-2.348l25.653-25.653
	c1.504-1.503,2.348-3.542,2.348-5.668V234.622C289.67,216.057,274.566,200.952,256,200.952z"/>
<path style="fill:#B3B9BF;" d="M307.307,299.29H204.693c-4.427,0-8.017,3.589-8.017,8.017v38.48c0,4.427,3.589,8.017,8.017,8.017
	h17.637V337.77h-9.62v-22.447h86.58v22.447h-9.62v16.033h17.637c4.427,0,8.017-3.589,8.017-8.017v-38.48
	C315.324,302.88,311.734,299.29,307.307,299.29z"/>
<path style="fill:#ECEDEF;" d="M256,323.875c-4.427,0-8.017-3.589-8.017-8.017v-25.653c0-4.427,3.589-8.017,8.017-8.017
	c4.427,0,8.017,3.589,8.017,8.017v25.653C264.017,320.285,260.427,323.875,256,323.875z"/>
<path style="fill:#BF722A;" d="M256,251.19c-4.427,0-8.017-3.589-8.017-8.017v-8.551c0-4.427,3.589-8.017,8.017-8.017
	c4.427,0,8.017,3.589,8.017,8.017v8.551C264.017,247.601,260.427,251.19,256,251.19z"/>
<rect x="196.676" y="371.975" style="fill:#F7B14D;" width="118.647" height="16.033"/>
<path style="fill:#BF722A;" d="M256,362.355c-4.427,0-8.017-3.589-8.017-8.017v-8.551c0-4.427,3.589-8.017,8.017-8.017
	c4.427,0,8.017,3.589,8.017,8.017v8.551C264.017,358.766,260.427,362.355,256,362.355z"/>
</svg>